<svg id="Layer_1" data-name="Layer 1" xmlns="http://www.w3.org/2000/svg" viewBox="0 0 286.65 117.84"><defs><style>.cls-1{fill:#231f20;}.cls-2{fill:none;stroke:#231f20;stroke-miterlimit:10;stroke-width:0.5px;}.cls-3{fill:#379a9a;}.cls-4{fill:#9b3668;}.cls-5{fill:#cc3735;}.cls-6{fill:#ffcd0c;}.cls-7{fill:#1d3866;}</style></defs><title>logo</title><path class="cls-1" d="M168.81,41.85h9.86v.71H168.09V23.35h.73Z" transform="translate(-10.25 -11.08)"/><path class="cls-1" d="M192.41,36.82H183l-2.14,5.74h-.78l7.19-19.22h.87l7.19,19.22h-.78Zm-9.15-.71h8.88l-4.43-11.9Z" transform="translate(-10.25 -11.08)"/><path class="cls-1" d="M209.94,38a3.63,3.63,0,0,0-.57-2.08,4.86,4.86,0,0,0-1.81-1.5A19.53,19.53,0,0,0,203.83,33a17.51,17.51,0,0,1-3.74-1.39A5,5,0,0,1,198.26,30a4.14,4.14,0,0,1-.58-2.24,4,4,0,0,1,1.77-3.4,7.59,7.59,0,0,1,4.61-1.3,7.46,7.46,0,0,1,3.32.72,5.39,5.39,0,0,1,2.28,2,5.47,5.47,0,0,1,.8,2.94h-.71a4.55,4.55,0,0,0-1.58-3.56,6,6,0,0,0-4.11-1.41,6.84,6.84,0,0,0-4.1,1.13,3.43,3.43,0,0,0-.21,5.62,12.84,12.84,0,0,0,4.49,1.87,13.83,13.83,0,0,1,4.58,1.88,4.29,4.29,0,0,1,1.85,3.64,4.22,4.22,0,0,1-.82,2.57,5.2,5.2,0,0,1-2.32,1.72,9,9,0,0,1-3.38.61,9.66,9.66,0,0,1-3.75-.69,5.33,5.33,0,0,1-2.5-2,5.39,5.39,0,0,1-.84-3h.71a4.3,4.3,0,0,0,1.77,3.67,7.56,7.56,0,0,0,4.61,1.31A7,7,0,0,0,208.3,41,3.53,3.53,0,0,0,209.94,38Z" transform="translate(-10.25 -11.08)"/><path class="cls-1" d="M225.92,38a3.63,3.63,0,0,0-.57-2.08,4.86,4.86,0,0,0-1.81-1.5A19.53,19.53,0,0,0,219.81,33a17.51,17.51,0,0,1-3.74-1.39A5,5,0,0,1,214.24,30a4.14,4.14,0,0,1-.58-2.24,4,4,0,0,1,1.77-3.4,7.59,7.59,0,0,1,4.61-1.3,7.46,7.46,0,0,1,3.32.72,5.39,5.39,0,0,1,2.28,2,5.47,5.47,0,0,1,.8,2.94h-.71a4.55,4.55,0,0,0-1.58-3.56A6,6,0,0,0,220,23.8a6.84,6.84,0,0,0-4.1,1.13,3.43,3.43,0,0,0-.21,5.62,12.84,12.84,0,0,0,4.49,1.87,13.83,13.83,0,0,1,4.58,1.88,4.29,4.29,0,0,1,1.85,3.64,4.22,4.22,0,0,1-.82,2.57,5.2,5.2,0,0,1-2.32,1.72,9,9,0,0,1-3.38.61,9.66,9.66,0,0,1-3.75-.69,5.33,5.33,0,0,1-2.5-2,5.39,5.39,0,0,1-.84-3h.71a4.3,4.3,0,0,0,1.77,3.67,7.56,7.56,0,0,0,4.61,1.31A7,7,0,0,0,224.28,41,3.53,3.53,0,0,0,225.92,38Z" transform="translate(-10.25 -11.08)"/><path class="cls-1" d="M244,34.39a10.39,10.39,0,0,1-.89,4.42,6.83,6.83,0,0,1-2.54,3,6.93,6.93,0,0,1-3.8,1,6.62,6.62,0,0,1-5.25-2.31,9.17,9.17,0,0,1-2-6.23V31.52a10.4,10.4,0,0,1,.89-4.41,6.79,6.79,0,0,1,2.55-3,7.41,7.41,0,0,1,7.6,0,6.84,6.84,0,0,1,2.55,3,10.35,10.35,0,0,1,.9,4.4Zm-.71-2.9a8.4,8.4,0,0,0-1.77-5.59,6.44,6.44,0,0,0-9.52,0,8.54,8.54,0,0,0-1.77,5.69v2.81a9.74,9.74,0,0,0,.8,4.06,6.14,6.14,0,0,0,2.28,2.71,6.25,6.25,0,0,0,3.46,1,5.89,5.89,0,0,0,4.76-2.1,8.65,8.65,0,0,0,1.75-5.73Z" transform="translate(-10.25 -11.08)"/><path class="cls-1" d="M262.24,42.56h-.71l-12.41-18v18h-.73V23.35h.73l12.41,18v-18h.71Z" transform="translate(-10.25 -11.08)"/><path class="cls-1" d="M267.52,42.56V23.35h5.32a7.86,7.86,0,0,1,4,1.06,7.46,7.46,0,0,1,2.84,3,9.06,9.06,0,0,1,1.06,4.27v2.49a9.19,9.19,0,0,1-1,4.33,7.47,7.47,0,0,1-2.82,3,7.81,7.81,0,0,1-4,1.1Zm.71-18.5V41.85h4.61a7.06,7.06,0,0,0,3.67-1,6.88,6.88,0,0,0,2.59-2.75,8.31,8.31,0,0,0,1-3.91V31.74a8.31,8.31,0,0,0-.92-3.91,6.87,6.87,0,0,0-2.56-2.75,7.07,7.07,0,0,0-3.64-1Z" transform="translate(-10.25 -11.08)"/><path class="cls-1" d="M295.56,33h-9.63v8.82h11v.71H285.21V23.35H296.9v.71h-11v8.26h9.63Z" transform="translate(-10.25 -11.08)"/><path class="cls-1" d="M171.51,49.21l13.1,30.12,13.15-30.12h1.73V81.06H198.3V51l-13.21,30.1h-.94L171,51.11V81.06h-1.18V49.21Z" transform="translate(-10.25 -11.08)"/><path class="cls-1" d="M225.38,65.26h-16V79.88h18.2v1.18H208.23V49.21h19.38v1.18h-18.2V64.08h16Z" transform="translate(-10.25 -11.08)"/><path class="cls-1" d="M233.74,81.06V49.21h8.81A13,13,0,0,1,249.24,51a12.36,12.36,0,0,1,4.7,4.91,15,15,0,0,1,1.75,7.08v4.13A15.22,15.22,0,0,1,254,74.25a12.37,12.37,0,0,1-4.67,5,12.93,12.93,0,0,1-6.69,1.82Zm1.18-30.67V79.88h7.63a11.71,11.71,0,0,0,6.09-1.63,11.39,11.39,0,0,0,4.3-4.55,13.78,13.78,0,0,0,1.58-6.49V63.12A13.76,13.76,0,0,0,253,56.65a11.39,11.39,0,0,0-4.24-4.56,11.71,11.71,0,0,0-6-1.7Z" transform="translate(-10.25 -11.08)"/><path class="cls-1" d="M265.1,81.06h-1.18V49.21h1.18Z" transform="translate(-10.25 -11.08)"/><path class="cls-1" d="M291.5,71.54h-15.6l-3.54,9.51h-1.29L283,49.21h1.44l11.92,31.85h-1.29Zm-15.16-1.18h14.72l-7.35-19.73Z" transform="translate(-10.25 -11.08)"/><path class="cls-1" d="M189.78,113.42a7.91,7.91,0,0,1-3.83,2.5,17.6,17.6,0,0,1-6,1,10.44,10.44,0,0,1-9.68-6,14.72,14.72,0,0,1-1.46-6.47v-5a14.4,14.4,0,0,1,1.37-6.37A10.26,10.26,0,0,1,174,88.76a10.37,10.37,0,0,1,5.58-1.54,10.77,10.77,0,0,1,7,2.2,8.69,8.69,0,0,1,3.15,6h-1.07a8,8,0,0,0-2.88-5.3,9.76,9.76,0,0,0-6.21-1.85,8.84,8.84,0,0,0-7,3.12,12.14,12.14,0,0,0-2.68,8.2v4.61a14,14,0,0,0,1.26,6.05,9.39,9.39,0,0,0,8.8,5.58,16.41,16.41,0,0,0,5.38-.85,7.19,7.19,0,0,0,3.41-2.07v-8.43h-8.83v-1.07h9.91Z" transform="translate(-10.25 -11.08)"/><path class="cls-1" d="M208.32,104.15h-10v12.37h-1.07V87.62h9.21a10.15,10.15,0,0,1,6.92,2.24A7.67,7.67,0,0,1,215.92,96a7.85,7.85,0,0,1-1.84,5.17,7.77,7.77,0,0,1-4.67,2.75l7.72,12.37v.28H216Zm-10-1.07h9.11a7.35,7.35,0,0,0,5.39-2,6.86,6.86,0,0,0,2.05-5.1,6.64,6.64,0,0,0-2.27-5.32,9.26,9.26,0,0,0-6.22-1.95H198.3Z" transform="translate(-10.25 -11.08)"/><path class="cls-1" d="M244.39,104.23a15.61,15.61,0,0,1-1.34,6.64,10.26,10.26,0,0,1-3.82,4.47,10.42,10.42,0,0,1-5.72,1.58,10,10,0,0,1-7.9-3.47q-3-3.47-3-9.37V99.91a15.64,15.64,0,0,1,1.34-6.63,10.24,10.24,0,0,1,3.83-4.48,11.15,11.15,0,0,1,11.43,0A10.29,10.29,0,0,1,243,93.29a15.56,15.56,0,0,1,1.35,6.62Zm-1.07-4.37a12.64,12.64,0,0,0-2.66-8.41,9.69,9.69,0,0,0-14.31,0q-2.66,3.15-2.66,8.57v4.23a14.65,14.65,0,0,0,1.2,6.1,9.23,9.23,0,0,0,3.42,4.08,9.41,9.41,0,0,0,5.2,1.43,8.85,8.85,0,0,0,7.17-3.16q2.64-3.16,2.64-8.61Z" transform="translate(-10.25 -11.08)"/><path class="cls-1" d="M270.45,87.62v19.57a9.49,9.49,0,0,1-2.66,7.16,11.39,11.39,0,0,1-14.41,0,9.44,9.44,0,0,1-2.68-7.08V87.62h1.07v19.53a8.44,8.44,0,0,0,2.41,6.35,9.91,9.91,0,0,0,12.79,0,8.49,8.49,0,0,0,2.4-6.37V87.62Z" transform="translate(-10.25 -11.08)"/><path class="cls-1" d="M279.17,104.31v12.21h-1.07V87.62h9A9.84,9.84,0,0,1,294,89.85a8,8,0,0,1,2.45,6.2,7.73,7.73,0,0,1-2.39,6.07,10,10,0,0,1-6.8,2.18Zm0-1.07h8a9,9,0,0,0,6.08-1.89,6.59,6.59,0,0,0,2.17-5.26,7,7,0,0,0-2.17-5.45,8.78,8.78,0,0,0-6.08-2h-8Z" transform="translate(-10.25 -11.08)"/><line class="cls-2" x1="140.47" x2="140.47" y2="117.84"/><g id="PP17bm.tif"><path class="cls-3" d="M68.25,107.9c-.62-2.9-1.29-5.79-1.85-8.7-3-15.79-6-31.57-9-47.37-.74-4-1.08-8-1.66-12A2.78,2.78,0,0,1,57,36.86c3.6-2.49,7.14-5.08,10.85-7.4A94.67,94.67,0,0,1,76.28,25c1.5-.74,1.6-.62,2.48.8.57.92,1.08,1.9,1.73,2.76a1.2,1.2,0,0,1-.28,1.93c-1.63,1.26-3.19,2.65-4.93,3.74-4,2.49-8,4.84-12,7.21-.51.3-.68.52-.55,1.17C65.82,57.78,69,73,71.91,88.16c1.34,6.89,2.29,13.86,3.4,20.79.09.54.1,1.08.18,1.62a5.67,5.67,0,0,1-.59,4.07,14.89,14.89,0,0,0-1.34,3,1.32,1.32,0,0,1-2,.95c-2.83-1-5.7-1.91-8.48-3.05a172.89,172.89,0,0,1-22.59-10.89c-2.37-1.41-2.35-1.44-1.24-3.88a29.93,29.93,0,0,0,1.23-2.78,1.2,1.2,0,0,1,1.76-.85c2.17.71,4.39,1.3,6.47,2.21,6.14,2.67,12.23,5.48,18.33,8.23.36.16.73.28,1.1.43l.13.06Z" transform="translate(-10.25 -11.08)"/><path class="cls-3" d="M53.31,89.09c-.44-2.12-.89-4.05-1.23-6-2.33-13.41-4.66-26.82-6.91-40.24-.55-3.28-.84-6.61-1.22-9.92-.12-1-.27-1.93,1-2.72,2.77-1.77,5.24-4,8-5.74,4.18-2.59,8.5-5,12.84-7.29,2.14-1.15,2.21-1,3.47,1.05.47.77.91,1.57,1.44,2.3a1,1,0,0,1-.21,1.67c-2,1.55-4,3.25-6.17,4.62-4.2,2.64-8.5,5.11-12.79,7.61A1,1,0,0,0,51,35.7c3.37,15.46,6,31.06,8.26,46.72q.66,4.62,1,9.28a8.68,8.68,0,0,1-.47,3c-.29,1-.9,1.91-1.2,2.91-.36,1.23-1.11,1.33-2.15,1.06a64.56,64.56,0,0,1-13.1-5.19c-1.38-.7-2.69-1.56-4-2.35a1.2,1.2,0,0,1-.54-1.87,34.49,34.49,0,0,0,1.4-3.18c.6-1.41.68-1.53,2.19-1.07,2.35.71,4.67,1.54,7,2.38C50.64,87.89,51.87,88.48,53.31,89.09Z" transform="translate(-10.25 -11.08)"/><path class="cls-4" d="M93,103.47c.16-1.81.24-3.36.44-4.88s.32-1.71,1.95-1.78c1.34-.06,2.68-.08,4-.22a1.23,1.23,0,0,1,1.53,1.11c.32,1.6.7,3.19.89,4.8a71.84,71.84,0,0,1,.35,15c0,.18,0,.36-.06.54-.26,1.71-.4,1.82-2.12,1.89-1.37.06-2.76.07-4.12.23A2,2,0,0,1,93.66,119c-1.43-2.39-2.92-4.75-4.33-7.16-1.08-1.84-2.07-3.73-3.11-5.6a1.34,1.34,0,0,0-.67-.64c.2,1.47.45,2.93.6,4.4.23,2.12.38,4.25.58,6.38.08.87-.23,1.32-1.17,1.44a31.56,31.56,0,0,0-3.73.73c-1,.24-1.53,0-1.78-1-.89-3.36-2-6.67-2.64-10.07-1.49-7.71-2.78-15.46-4.1-23.19a33.07,33.07,0,0,1-.26-3.79,1.06,1.06,0,0,1,1-1.24c1.43-.23,2.84-.57,4.27-.77a1.35,1.35,0,0,1,1.12.48q5.87,10.46,11.66,21C91.75,101,92.3,102.14,93,103.47Zm-7.46,1.81,0-.08H85.5Z" transform="translate(-10.25 -11.08)"/><path class="cls-5" d="M25.17,33c-.76,5.74-1.35,11.51-2.31,17.21C21.37,59,19.64,67.79,18,76.57c-.13.7.17,1,.63,1.31A120.2,120.2,0,0,1,34.52,92c.82.87,1.53,1.83,2.28,2.76a1,1,0,0,1-.07,1.52c-1.17,1.24-2.29,2.52-3.39,3.82a1,1,0,0,1-1.5.27c-1-.64-2.06-1.22-3-1.93A127.91,127.91,0,0,1,12.39,83.76a6.64,6.64,0,0,1-2.07-5.85c1-7.13,1.72-14.31,2.88-21.41,1.19-7.32,2.74-14.58,4.17-21.86.27-1.38.76-2.72,1.15-4.07a.82.82,0,0,1,1.12-.66,32.9,32.9,0,0,0,4,.65c1.12.09,1.54.56,1.37,1.64A4.94,4.94,0,0,0,25,33Z" transform="translate(-10.25 -11.08)"/><path class="cls-6" d="M30.87,69.68l-1.34,4.76q-.12.42-.26.83c-.55,1.65-.55,1.65-2.27,1.32-.89-.17-1.77-.41-2.66-.52s-1-.5-.94-1.23c.32-2.62.53-5.26,1-7.86A319.31,319.31,0,0,1,31,35.11c.26-.94.59-1.86.89-2.79a.82.82,0,0,1,1.15-.62c1.26.32,2.55.55,3.83.75a1.62,1.62,0,0,1,1.49,1.44c.86,4.25,1.89,8.48,2.58,12.76q1.76,10.93,3.16,21.92c.5,3.87.68,7.79,1,11.68.08.91-.19,1.4-1.21,1.47a24.66,24.66,0,0,0-3.33.5c-.9.19-1.36-.1-1.55-1-.63-2.93-1.31-5.86-1.91-8.8a1.24,1.24,0,0,0-1-1.13C34.38,70.84,32.67,70.25,30.87,69.68Zm3.46-15h-.18l-1.36,6.6,2.65,1Z" transform="translate(-10.25 -11.08)"/><path class="cls-7" d="M68.22,43.5c0-1.65,0-1.45,1.52-2,2.33-.81,3.81.07,5.32,1.76,4.85,5.39,9.64,10.87,13.44,17A54.28,54.28,0,0,1,93.24,71c2,5.63,3.55,11.39,5.31,17.08a2,2,0,0,1-.95,2.7,9,9,0,0,0-1.77,1.43,1,1,0,0,1-1.65,0c-1.48-1.54-3.07-3-4.43-4.63-4.46-5.38-8.83-10.83-13.23-16.26a27.18,27.18,0,0,1-6-13.23c-.74-4.86-1.69-9.69-2.55-14.53ZM80.63,59.63l-4.47-5.43,1.27,8.58A5.09,5.09,0,0,1,80.63,59.63Zm1.73,8.47,4.39,5.11-1.82-6.5Z" transform="translate(-10.25 -11.08)"/><path class="cls-4" d="M101.24,86.81s0-.07,0-.11c-.16-2.19-.16-2.17,2-2.59a3.22,3.22,0,0,0,1.4-.5c.77-.62,1.29-.44,1.94.19a66.38,66.38,0,0,1,12.59,17.42,2.2,2.2,0,0,1,0,1.64c-1.71,4.14-3.48,8.26-5.24,12.38-.1.23-.23.45-.36.67-1.84,3.41-2.07,3.53-5.91,3.84-.74.06-.88-.39-1-.87-.55-2.21-1.22-4.4-1.59-6.64-1.3-8-2.5-15.94-3.73-23.91C101.26,87.83,101.27,87.32,101.24,86.81Zm9.3,21.46c.79-1.6,1.45-3,2.13-4.29.86-1.68.86-1.66-.43-2.94a23.76,23.76,0,0,1-1.59-1.78c-.61-.74-1.19-1.51-1.95-2.47Z" transform="translate(-10.25 -11.08)"/><path class="cls-5" d="M121,115.26l-1,2.09,4.44,2.17a1.21,1.21,0,0,1,.67,1.88C124,123.79,124,124,121.56,123a67.18,67.18,0,0,1-6.47-3.21,1.15,1.15,0,0,1-.29-1.05,49.3,49.3,0,0,1,1.91-5.07c1.38-2.95,2.91-5.82,4.35-8.74.48-1,1-1.19,2.11-.71,1.4.61,3,.75,4.43,1.3a47.5,47.5,0,0,1,4.69,2.24,1,1,0,0,1,.43.85,22.38,22.38,0,0,1-4.13,8.88,1.14,1.14,0,0,1-1,.17C125.4,116.89,123.24,116.09,121,115.26Zm2.9-6.51-1,2.53,2.66.8.93-2.06Z" transform="translate(-10.25 -11.08)"/></g></svg>